<svg width="60" height="142" viewBox="0 0 60 142" fill="none" xmlns="http://www.w3.org/2000/svg">
<mask id="mask0_14_258" style="mask-type:alpha" maskUnits="userSpaceOnUse" x="0" y="0" width="60" height="142">
<path d="M0 12.9999L30 0.5L59.4228 12.9999L59.4228 129.803L29.7114 141.231L1.52588e-05 129.803L0 12.9999Z" fill="#05030E"/>
</mask>
<g mask="url(#mask0_14_258)">
<path d="M0 36.7988L29.7114 24L59.4228 36.7988V281.803L29.7114 293.231L0 281.803V36.7988Z" fill="#7EE8A0"/>
<g opacity="0.25">
<path d="M0 13.0297L29.7114 0.230957L59.4228 13.0297V258.034L29.7114 269.462L0 258.034V13.0297Z" fill="#7EE8A0"/>
<mask id="mask1_14_258" style="mask-type:alpha" maskUnits="userSpaceOnUse" x="0" y="0" width="60" height="270">
<path d="M0 13.0297L29.7114 0.230957L59.4228 13.0297V258.034L29.7114 269.462L0 258.034V13.0297Z" fill="#7EE8A0"/>
</mask>
<g mask="url(#mask1_14_258)">
<path d="M-21.0265 4.802L30.1685 24.4572V269.919L-12.7988 253.463L-21.0265 4.802Z" fill="#75CF92"/>
</g>
</g>
<g opacity="0.5">
<path d="M0 23.0859L29.7114 10.2871L59.4228 23.0859V268.091L29.7114 279.518L0 268.091V23.0859Z" fill="#7EE8A0"/>
<mask id="mask2_14_258" style="mask-type:alpha" maskUnits="userSpaceOnUse" x="0" y="10" width="60" height="270">
<path d="M0 23.0859L29.7114 10.2871L59.4228 23.0859V268.091L29.7114 279.518L0 268.091V23.0859Z" fill="#7EE8A0"/>
</mask>
<g mask="url(#mask2_14_258)">
<path d="M-21.0265 14.8582L30.1685 34.5134V279.975L-12.7988 263.52L-21.0265 14.8582Z" fill="#75CF92"/>
</g>
</g>
</g>
<mask id="mask3_14_258" style="mask-type:alpha" maskUnits="userSpaceOnUse" x="0" y="0" width="60" height="142">
<path d="M0 13L29.7114 0.201247L59.4228 13V129.803L29.7114 141.231L0 129.803V13Z" fill="#7EE8A0"/>
</mask>
<g mask="url(#mask3_14_258)">
<path d="M-21.0265 31.231L30.1685 50.8862V296.348L-12.7988 279.892L-21.0265 31.231Z" fill="#75CF92"/>
</g>
</svg>
